<svg xmlns="http://www.w3.org/2000/svg" xmlns:xlink="http://www.w3.org/1999/xlink" width="1048" height="188" viewBox="0 0 1048 188">
  <defs>
    <clipPath id="clip-path">
      <path id="Path_2" data-name="Path 2" d="M2.832,4.012H186.454V184.656H2.832Zm0,0" transform="translate(-2.832 -4.012)"/>
    </clipPath>
    <clipPath id="clip-Accesible_Logo">
      <rect width="1048" height="188"/>
    </clipPath>
  </defs>
  <g id="Accesible_Logo" data-name="Accesible Logo" clip-path="url(#clip-Accesible_Logo)">
    <g id="Group_2" data-name="Group 2" transform="translate(-221 -23.896)">
      <g id="Blue_White_Simple_Law_Firm_Logo_1_" data-name="Blue White Simple Law Firm Logo (1)" transform="translate(221 23)">
        <rect id="Rectangle_1" data-name="Rectangle 1" width="193" height="190" transform="translate(0 -0.104)" fill="#fff"/>
        <rect id="Rectangle_2" data-name="Rectangle 2" width="193" height="190" transform="translate(0 -0.104)" fill="#fff"/>
        <rect id="Rectangle_3" data-name="Rectangle 3" width="193" height="190" transform="translate(0 -0.104)" fill="#fff"/>
        <rect id="Rectangle_4" data-name="Rectangle 4" width="193" height="190" transform="translate(0 -0.104)" fill="#fff"/>
        <g id="Group_1" data-name="Group 1" transform="translate(4.433 4.949)" clip-path="url(#clip-path)">
          <path id="Path_1" data-name="Path 1" d="M179.236,77.6,177,82.113l-4.979.726,3.607,3.518-.852,4.96,4.46-2.342,4.46,2.342-.852-4.96,3.607-3.518-4.99-.726Zm-10.78-31.958-1.31,2.649-2.931.419,2.121,2.066-.5,2.9,2.62-1.37,2.609,1.37-.5-2.9,2.121-2.066-2.921-.419Zm6.445,14.89L173.238,63.9l-3.711.542,2.692,2.618-.634,3.7,3.316-1.749,3.326,1.749-.634-3.7,2.692-2.618-3.722-.542ZM7.818,82.113l-4.99.726,3.607,3.518-.852,4.96,4.47-2.342L14.5,91.317l-.842-4.96,3.607-3.518-4.99-.726L10.053,77.6ZM20.687,48.344l-2.921.43,2.11,2.056-.5,2.915L22,52.374l2.62,1.37-.5-2.915,2.11-2.056-2.921-.43L22,45.7ZM12.433,63.93l-3.711.532L11.4,67.09l-.634,3.692L14.1,69.033l3.326,1.749-.634-3.692,2.682-2.628L15.76,63.93,14.1,60.565ZM54.752,93.915h15.52V88.188H54.752Zm81.187,0V88.188h-15.52v5.727Zm8.649-29.126H46.1v5.717h98.485Zm-8.649,11.7H54.752v5.717h81.187Zm-37.09,91.3V88.382H93.121v79.41Zm79.7-71.137a83.634,83.634,0,0,1-64.814,81.118V88.382h-5.728v90.465c-.125.02-.239.041-.353.061a84.5,84.5,0,0,1-24.616,0l-.353-.061V88.382H76.957v89.392A83.623,83.623,0,0,1,12.142,96.655H7.308a88.02,88.02,0,0,0,69.139,85.955c2,.44,3.971.8,5.884,1.074a87.743,87.743,0,0,0,13.015.961,88.888,88.888,0,0,0,13-.951c1.913-.286,3.9-.644,5.9-1.084a88.025,88.025,0,0,0,69.128-85.955ZM29.294,41.421l-3.836-2.935a88.666,88.666,0,0,1,30.3-25.1,88.236,88.236,0,0,1,79.17,0,88.753,88.753,0,0,1,30.3,25.086L161.4,41.421a83.242,83.242,0,0,0-132.1,0" transform="translate(-2.839 -4.012)" fill="#283060"/>
        </g>
      </g>
      <text id="ACCESIBLE_RIGHTS" data-name="ACCESIBLE RIGHTS" transform="translate(456 148.896)" fill="#283060" font-size="86" font-family="Inter" font-weight="500"><tspan x="0" y="0">ACCESIBLE RIGHTS</tspan></text>
    </g>
  </g>
</svg>
